<svg xmlns="http://www.w3.org/2000/svg" width="22" height="23" fill="none" viewBox="0 0 22 23">
  <path fill="#343434" fill-rule="evenodd" d="M21.66 1.372a1 1 0 0 0-1.856-.743l-1.332 3.33a2.973 2.973 0 0 0-1.747-.558H3.002a3 3 0 0 0-2.85 3.933l1.963 6a3 3 0 0 0 2.852 2.067h9.793a3 3 0 0 0 2.851-2.067l1.965-6c.127-.388.17-.778.143-1.154.033-.052.061-.107.085-.166l1.857-4.642ZM16.726 5.4H3.002a1 1 0 0 0-.95 1.31l1.964 6a1 1 0 0 0 .95.69h9.794a1 1 0 0 0 .95-.69l1.965-6a1 1 0 0 0-.95-1.31Zm-9.55 13.8a1.5 1.5 0 1 1-3 0 1.5 1.5 0 0 1 3 0Zm2 0a3.5 3.5 0 1 1-7 0 3.5 3.5 0 0 1 7 0Zm6 0a1.5 1.5 0 1 1-3 0 1.5 1.5 0 0 1 3 0Zm2 0a3.5 3.5 0 1 1-7 0 3.5 3.5 0 0 1 7 0Z" clip-rule="evenodd"/>
</svg>
