<svg width="16" height="18" viewBox="0 0 16 18" fill="none" xmlns="http://www.w3.org/2000/svg">
<path d="M6.3612 3.6737C7.68986 5.67722 7.72378 9.37234 6.69458 10.9123C9.17745 10.6449 11.6516 8.48027 12.1933 7.02776C13.2041 8.26089 13.7507 9.72197 13.7507 11.2833C13.7507 12.615 12.9153 14.6776 10.6311 15.7068C10.4189 14.5148 9.54086 13.2166 8.07459 12.4796C6.67907 13.2029 5.65472 14.7831 5.37658 15.8542C4.1807 15.3846 2.12133 13.9518 2.12133 11.9971C2.12133 9.18553 4.74666 8.06808 6.3612 3.6737ZM5.02867 0C5.55393 5.39186 0.183105 7.24799 0.183105 11.9971C0.183105 15.2227 3.56531 17.4987 6.9669 18C6.80021 16.7506 7.25473 15.5457 8.09688 14.8362C8.92063 15.4926 9.29858 16.952 8.90512 17.9966C12.6537 17.3539 15.6889 14.6905 15.6889 11.2842C15.6889 8.17691 13.9125 5.24875 10.5613 3.42776C11.1467 5.409 10.3898 6.77496 9.3296 7.62333C9.39065 5.11935 8.20833 1.76701 5.02867 0Z" fill="#636B77"/>
</svg>
