<svg width="16" height="20" viewBox="0 0 16 20" fill="none" xmlns="http://www.w3.org/2000/svg">
<path d="M14.25 6.98203V6.875C14.25 5.2174 13.5915 3.62768 12.4194 2.45558C11.2473 1.28348 9.6576 0.625 8 0.625C6.3424 0.625 4.75268 1.28348 3.58058 2.45558C2.40848 3.62768 1.75 5.2174 1.75 6.875V6.98203C1.33285 7.12936 0.981229 7.41946 0.757316 7.80101C0.533403 8.18257 0.45162 8.63101 0.526428 9.06705C0.601235 9.50308 0.827815 9.89862 1.1661 10.1837C1.50439 10.4688 1.93259 10.6251 2.375 10.625H2.6375L7.45703 19.0625C7.51165 19.1583 7.59065 19.238 7.68602 19.2934C7.78138 19.3488 7.88971 19.378 8 19.378C8.11029 19.378 8.21862 19.3488 8.31398 19.2934C8.40934 19.238 8.48835 19.1583 8.54297 19.0625L13.3625 10.625H13.625C14.0674 10.6251 14.4956 10.4688 14.8339 10.1837C15.1722 9.89862 15.3988 9.50308 15.4736 9.06705C15.5484 8.63101 15.4666 8.18257 15.2427 7.80101C15.0188 7.41946 14.6672 7.12936 14.25 6.98203ZM8 17.4906L4.07734 10.625H5.58359L8.75312 16.1719L8 17.4906ZM8.53047 10.625L10.2266 13.5937L9.47344 14.9125L7.02344 10.625H8.53047ZM10.9461 12.3344L9.96953 10.625H11.9227L10.9461 12.3344ZM13.625 9.375H2.375C2.20924 9.375 2.05027 9.30915 1.93306 9.19194C1.81585 9.07473 1.75 8.91576 1.75 8.75C1.75 8.58424 1.81585 8.42527 1.93306 8.30806C2.05027 8.19085 2.20924 8.125 2.375 8.125C2.54076 8.125 2.69973 8.05915 2.81694 7.94194C2.93415 7.82473 3 7.66576 3 7.5V6.875C3 5.54892 3.52678 4.27715 4.46446 3.33947C5.40215 2.40178 6.67392 1.875 8 1.875C9.32608 1.875 10.5979 2.40178 11.5355 3.33947C12.4732 4.27715 13 5.54892 13 6.875V7.5C13 7.66576 13.0658 7.82473 13.1831 7.94194C13.3003 8.05915 13.4592 8.125 13.625 8.125C13.7908 8.125 13.9497 8.19085 14.0669 8.30806C14.1842 8.42527 14.25 8.58424 14.25 8.75C14.25 8.91576 14.1842 9.07473 14.0669 9.19194C13.9497 9.30915 13.7908 9.375 13.625 9.375Z" fill="#E73636"/>
</svg>
