<svg xmlns="http://www.w3.org/2000/svg" width="49" height="61" fill="none" viewBox="0 0 49 61">
  <path fill="#343434" d="M24.5 13.25a10.78 10.78 0 1 0 0 21.561 10.78 10.78 0 0 0 0-21.561Zm0 17.25a6.468 6.468 0 1 1 0-12.937 6.468 6.468 0 0 1 0 12.937Zm0-30.188A23.746 23.746 0 0 0 .781 24.032c0 8.463 3.911 17.433 11.32 25.942a68.513 68.513 0 0 0 11.173 10.323 2.156 2.156 0 0 0 2.474 0 68.506 68.506 0 0 0 11.15-10.323c7.4-8.51 11.32-17.48 11.32-25.943A23.746 23.746 0 0 0 24.5.313Zm0 55.524C20.045 52.332 5.094 39.462 5.094 24.03a19.406 19.406 0 1 1 38.812 0c0 15.425-14.95 28.301-19.406 31.805Z"/>
</svg>
