<svg width="33" height="32" viewBox="0 0 33 32" fill="none" xmlns="http://www.w3.org/2000/svg">
<path d="M16.5 8C15.5111 8 14.5444 8.29325 13.7221 8.84265C12.8999 9.39206 12.259 10.173 11.8806 11.0866C11.5022 12.0002 11.4031 13.0055 11.5961 13.9755C11.789 14.9454 12.2652 15.8363 12.9645 16.5355C13.6637 17.2348 14.5546 17.711 15.5245 17.9039C16.4945 18.0969 17.4998 17.9978 18.4134 17.6194C19.327 17.241 20.1079 16.6001 20.6573 15.7779C21.2068 14.9556 21.5 13.9889 21.5 13C21.5 11.6739 20.9732 10.4021 20.0355 9.46447C19.0979 8.52678 17.8261 8 16.5 8ZM16.5 16C15.9067 16 15.3266 15.8241 14.8333 15.4944C14.3399 15.1648 13.9554 14.6962 13.7284 14.1481C13.5013 13.5999 13.4419 12.9967 13.5576 12.4147C13.6734 11.8328 13.9591 11.2982 14.3787 10.8787C14.7982 10.4591 15.3328 10.1734 15.9147 10.0576C16.4967 9.94189 17.0999 10.0013 17.6481 10.2284C18.1962 10.4554 18.6648 10.8399 18.9944 11.3333C19.3241 11.8266 19.5 12.4067 19.5 13C19.5 13.7956 19.1839 14.5587 18.6213 15.1213C18.0587 15.6839 17.2956 16 16.5 16ZM16.5 2C13.5836 2.00331 10.7877 3.1633 8.72548 5.22548C6.6633 7.28766 5.50331 10.0836 5.5 13C5.5 16.925 7.31375 21.085 10.75 25.0312C12.294 26.8145 14.0318 28.4202 15.9312 29.8188C16.0994 29.9365 16.2997 29.9997 16.505 29.9997C16.7103 29.9997 16.9106 29.9365 17.0788 29.8188C18.9747 28.4196 20.7091 26.8139 22.25 25.0312C25.6812 21.085 27.5 16.925 27.5 13C27.4967 10.0836 26.3367 7.28766 24.2745 5.22548C22.2123 3.1633 19.4164 2.00331 16.5 2ZM16.5 27.75C14.4338 26.125 7.5 20.1562 7.5 13C7.5 10.6131 8.44821 8.32387 10.136 6.63604C11.8239 4.94821 14.1131 4 16.5 4C18.8869 4 21.1761 4.94821 22.864 6.63604C24.5518 8.32387 25.5 10.6131 25.5 13C25.5 20.1537 18.5662 26.125 16.5 27.75Z" fill="#EAEAEA"/>
</svg>
