<svg width="44" height="43" viewBox="0 0 44 43" fill="none" xmlns="http://www.w3.org/2000/svg">
<path d="M43.7851 8.30472C43.6888 7.90473 43.5141 7.52784 43.271 7.19591C43.0279 6.86399 42.7214 6.58364 42.3691 6.37112C36.2249 2.65432 29.1809 0.689514 22 0.689514C14.8191 0.689514 7.77501 2.65432 1.63083 6.37112C1.27957 6.58415 0.973761 6.86435 0.730899 7.19569C0.488038 7.52703 0.312888 7.903 0.215473 8.30209C0.118058 8.70118 0.100289 9.11557 0.163181 9.52154C0.226074 9.9275 0.368394 10.3171 0.582 10.668L19.332 41.3848C19.6105 41.844 20.0027 42.2237 20.4708 42.4872C20.9388 42.7507 21.4668 42.8891 22.0039 42.8891C22.541 42.8891 23.069 42.7507 23.537 42.4872C24.005 42.2237 24.3972 41.844 24.6757 41.3848L43.4257 10.668C43.6396 10.3177 43.7815 9.92828 43.8432 9.52252C43.9049 9.11675 43.8852 8.70276 43.7851 8.30472ZM9.41989 19.1446C9.92758 18.6661 10.5357 18.307 11.1998 18.0934C11.8639 17.8799 12.5673 17.8173 13.2587 17.9101C13.9502 18.003 14.6121 18.249 15.1964 18.6302C15.7806 19.0115 16.2724 19.5183 16.6358 20.1137C16.9993 20.7092 17.2252 21.3783 17.2972 22.0722C17.3692 22.7661 17.2854 23.4673 17.052 24.1247C16.8185 24.7821 16.4412 25.379 15.9477 25.8721C15.4542 26.3651 14.8568 26.7418 14.1992 26.9746L9.41989 19.1446ZM26.5918 32.2207C25.8093 31.4829 25.3043 30.4985 25.1616 29.4325C25.0188 28.3666 25.2469 27.284 25.8077 26.3662C26.3684 25.4485 27.2277 24.7516 28.2414 24.3922C29.255 24.0329 30.3614 24.033 31.375 24.3926L26.5918 32.2207ZM33.0234 21.6875C31.2867 20.8993 29.3216 20.7735 27.4986 21.334C25.6756 21.8944 24.1205 23.1024 23.1266 24.7302C22.1327 26.358 21.7686 28.2931 22.1029 30.1708C22.4371 32.0485 23.4468 33.7391 24.9414 34.9239L22 39.75L15.8476 29.6778C16.8577 29.2226 17.7594 28.5578 18.4929 27.7275C19.2264 26.8972 19.7749 25.9204 20.1021 24.862C20.4292 23.8035 20.5275 22.6875 20.3904 21.5881C20.2533 20.4888 19.8839 19.4311 19.3068 18.4854C18.7297 17.5397 17.958 16.7276 17.0431 16.1029C16.1281 15.4782 15.0907 15.0553 13.9998 14.8621C12.9089 14.669 11.7893 14.7101 10.7155 14.9828C9.6417 15.2554 8.63814 15.7533 7.77145 16.4434L6.53122 14.4102C11.1895 11.5667 16.5414 10.0623 21.999 10.0623C27.4565 10.0623 32.8085 11.5667 37.4668 14.4102L33.0234 21.6875ZM39.0976 11.7403C33.9477 8.59932 28.0321 6.93768 22 6.93768C15.9678 6.93768 10.0522 8.59932 4.90231 11.7403L3.24997 9.04104C8.90667 5.62232 15.3904 3.81523 22 3.81523C28.6095 3.81523 35.0933 5.62232 40.75 9.04104L39.0976 11.7403Z" fill="#E73636"/>
</svg>
