<svg width="38" height="35" viewBox="0 0 38 35" fill="none" xmlns="http://www.w3.org/2000/svg">
<path d="M20.7813 24.6094C20.7813 24.9339 20.6768 25.2511 20.4811 25.5209C20.2853 25.7907 20.0071 26.0009 19.6817 26.1251C19.3562 26.2493 18.998 26.2818 18.6525 26.2185C18.307 26.1552 17.9896 25.9989 17.7405 25.7695C17.4914 25.54 17.3217 25.2477 17.253 24.9294C17.1843 24.6112 17.2195 24.2813 17.3543 23.9815C17.4892 23.6818 17.7175 23.4255 18.0104 23.2452C18.3033 23.065 18.6477 22.9688 19 22.9688C19.4724 22.9688 19.9255 23.1416 20.2595 23.4493C20.5936 23.757 20.7813 24.1743 20.7813 24.6094ZM19 9.84375C15.7255 9.84375 13.0625 12.0518 13.0625 14.7656V15.3125C13.0625 15.6026 13.1876 15.8808 13.4103 16.0859C13.633 16.291 13.9351 16.4062 14.25 16.4062C14.565 16.4062 14.867 16.291 15.0897 16.0859C15.3124 15.8808 15.4375 15.6026 15.4375 15.3125V14.7656C15.4375 13.2617 17.0362 12.0312 19 12.0312C20.9638 12.0312 22.5625 13.2617 22.5625 14.7656C22.5625 16.2695 20.9638 17.5 19 17.5C18.6851 17.5 18.383 17.6152 18.1603 17.8204C17.9376 18.0255 17.8125 18.3037 17.8125 18.5938V19.6875C17.8125 19.9776 17.9376 20.2558 18.1603 20.4609C18.383 20.666 18.6851 20.7812 19 20.7812C19.315 20.7812 19.617 20.666 19.8397 20.4609C20.0624 20.2558 20.1875 19.9776 20.1875 19.6875V19.5891C22.895 19.1311 24.9375 17.1418 24.9375 14.7656C24.9375 12.0518 22.2745 9.84375 19 9.84375ZM34.4375 17.5C34.4375 20.3122 33.5321 23.0613 31.8358 25.3995C30.1395 27.7378 27.7285 29.5602 24.9077 30.6364C22.0868 31.7126 18.9829 31.9942 15.9883 31.4455C12.9937 30.8969 10.243 29.5427 8.08405 27.5542C5.92507 25.5656 4.45479 23.0321 3.85913 20.2739C3.26347 17.5158 3.56919 14.6569 4.73762 12.0587C5.90604 9.46058 7.88471 7.23992 10.4234 5.67754C12.9621 4.11517 15.9468 3.28125 19 3.28125C23.093 3.28523 27.017 4.78455 29.9112 7.45022C32.8054 10.1159 34.4332 13.7302 34.4375 17.5ZM32.0625 17.5C32.0625 15.1204 31.2964 12.7943 29.8611 10.8158C28.4258 8.83727 26.3857 7.29519 23.9988 6.38457C21.612 5.47396 18.9855 5.2357 16.4516 5.69993C13.9178 6.16416 11.5902 7.31002 9.76342 8.99262C7.9366 10.6752 6.69252 12.819 6.1885 15.1528C5.68448 17.4867 5.94316 19.9057 6.93183 22.1042C7.9205 24.3026 9.59475 26.1816 11.7429 27.5036C13.891 28.8256 16.4165 29.5312 19 29.5312C22.4632 29.5276 25.7834 28.2589 28.2323 26.0034C30.6811 23.7479 32.0586 20.6898 32.0625 17.5Z" fill="#E73636"/>
</svg>
