<svg xmlns="http://www.w3.org/2000/svg" width="26" height="26" fill="none" viewBox="0 0 26 26">
  <path fill="#343434" fill-rule="evenodd" d="M11.086 0a2 2 0 0 0-2 2v1.873L7.762 2.548a2 2 0 0 0-2.829 0L2.548 4.935a2 2 0 0 0 0 2.828l1.324 1.324H2a2 2 0 0 0-2 2v3.373a2 2 0 0 0 2 2h1.873l-1.325 1.325a2 2 0 0 0 0 2.828l2.385 2.386a2 2 0 0 0 2.829 0l1.324-1.325v1.873a2 2 0 0 0 2 2h3.373a2 2 0 0 0 2-2v-1.873l1.325 1.325a2 2 0 0 0 2.828 0l2.385-2.386a2 2 0 0 0 0-2.828l-1.324-1.325h1.873a2 2 0 0 0 2-2v-3.373a2 2 0 0 0-2-2h-1.873l1.324-1.324a2 2 0 0 0 0-2.828L20.612 2.55l-.707.707.707-.707a2 2 0 0 0-2.828 0l-1.325 1.324V2a2 2 0 0 0-2-2h-3.373Zm0 2h3.373v1.873c0 1.782 2.154 2.674 3.414 1.414l1.325-1.324 2.385 2.385-1.324 1.324c-1.26 1.26-.368 3.414 1.414 3.414h1.873v3.373h-1.873c-1.782 0-2.674 2.155-1.415 3.415l1.325 1.324-2.385 2.385-1.325-1.324c-1.26-1.26-3.414-.368-3.414 1.414v1.873h-3.373v-1.872c0-1.782-2.154-2.675-3.414-1.415l-1.324 1.324-2.385-2.385 1.324-1.324c1.26-1.26.368-3.414-1.414-3.414H2v-3.374h1.872c1.782 0 2.675-2.154 1.415-3.414L3.962 6.348l2.385-2.385 1.325 1.324c1.26 1.26 3.414.368 3.414-1.414V2Zm-.945 10.773a2.632 2.632 0 1 1 5.264 0 2.632 2.632 0 0 1-5.264 0Zm2.632-4.632a4.632 4.632 0 1 0 0 9.264 4.632 4.632 0 0 0 0-9.264Z" clip-rule="evenodd"/>
</svg>
